<svg width="96" height="96" xmlns="http://www.w3.org/2000/svg" xmlns:xlink="http://www.w3.org/1999/xlink" overflow="hidden"><defs><clipPath id="clip0"><rect x="0" y="0" width="96" height="96"/></clipPath></defs><g clip-path="url(#clip0)"><path d="M69.164 22.2859C68.1054 20.4553 65.802 18.8987 62.6163 17.9295L62.6163 17.5183C62.7046 14.4053 57.7546 11.8306 51.648 11.8306 49.9469 11.8145 48.2517 12.0319 46.6098 12.4768 43.8991 10.7314 40.7153 9.86629 37.494 10 32.6322 10 28.4664 11.6544 26.9667 13.9452 25.2092 13.4512 23.3915 13.2041 21.5658 13.211 15.4593 13.211 10.5093 15.7758 10.5093 18.9378 10.6025 20.2605 11.3291 21.4565 12.4599 22.1488 6.70617 22.9319 2.55012 25.5848 2.55012 28.7959 2.55012 32.6039 8.4803 35.6681 15.822 35.6681 16.8805 35.6681 17.949 35.58 19.0076 35.482 23.2518 36.4905 32.6322 39.4272 33.0733 42.7655L32.8553 52.8398C35.0998 52.1631 37.4294 51.8103 39.7736 51.7921L39.7755 51.7921C40.2426 51.7921 40.7043 51.8131 41.1631 51.8432L40.9541 41.4831C40.9541 41.4341 41.0423 41.3949 41.0423 41.3949 41.7481 39.7405 45.9923 38.6442 50.511 37.4988 55.0198 36.3534 60.3325 34.9731 62.0086 32.5942 63.1471 32.8022 64.3016 32.9103 65.4589 32.9173 71.3008 32.9173 76.0744 30.4406 76.0744 27.4156 75.9764 25.076 73.1436 23.0593 69.164 22.2859ZM23.9576 34.1997C25.403 33.6341 26.7246 32.7929 27.8489 31.7229 28.6652 31.9275 29.4935 32.0812 30.3288 32.1831 32.0463 33.5533 33.0546 35.6248 33.0734 37.8218 30.1538 36.3342 27.102 35.1216 23.9576 34.1997ZM37.3176 36.2653C36.9983 34.8577 36.3613 33.5417 35.4552 32.4181 37.496 32.3043 39.5162 31.9494 41.4736 31.3607 39.8544 32.7821 38.454 34.4348 37.3176 36.2653ZM48.4624 35.443C45.9759 36.0194 43.5246 36.7385 41.1208 37.5967 42.7154 34.891 44.8917 32.5737 47.492 30.8125 49.9806 31.597 52.5774 31.9836 55.1865 31.9579 56.015 31.9584 56.8429 31.9126 57.6664 31.8209 56.6862 33.2403 53.236 34.1997 48.4624 35.443Z"/><path d="M2.0069 87 94.0059 87 94.0059 72.4465C93.2686 71.9714 92.5207 71.5119 91.7488 71.0898 82.676 66.2554 72.2242 66.3406 67.9801 66.6233 68.1518 65.6899 68.2025 65.113 68.2025 65.113 67.6115 65.6227 67.0523 66.1681 66.5281 66.7462L66.1812 67.1313C64.9232 68.5451 63.8426 70.1072 62.9633 71.7829 61.9373 73.8479 61.1597 76.0271 60.6469 78.2751 60.2871 75.9333 59.9589 73.2323 59.7361 70.2568 61.3669 68.569 62.7593 66.6661 63.8745 64.6011 65.0314 62.3029 65.7774 59.8201 66.0788 57.2649 64.1857 58.9338 62.6139 60.9349 61.4408 63.1694 60.6537 64.7405 60.036 66.3909 59.5981 68.0928 59.5349 66.9138 59.4842 65.7107 59.463 64.4648L59.5762 59.5468C59.5554 55.9734 59.0216 52.4214 57.9911 48.9997 56.9412 52.3394 56.4001 55.8182 56.3862 59.319L56.463 64.5161C56.4838 65.7349 56.5317 66.9106 56.5907 68.0641 55.8032 66.5028 54.8524 65.0293 53.7542 63.6684 52.1325 61.7346 50.1709 60.1138 47.9661 58.8858 48.8042 61.3184 50.0614 63.5856 51.6808 65.585 53.1508 67.3003 54.8423 68.8125 56.7109 70.082 56.9104 72.9264 57.2039 75.5341 57.5347 77.8297 56.5965 75.8996 55.4441 74.0811 54.0992 72.4087 52.2674 70.2243 50.0515 68.3933 47.5609 67.0062 48.0283 68.3762 48.6187 69.7011 49.3251 70.9646 47.3446 72.0871 45.5645 73.5309 44.0573 75.237 43.1914 76.2515 42.4167 77.3404 41.7422 78.491 41.629 78.5074 41.5101 78.5196 41.3987 78.537 41.562 77.7066 41.7244 76.876 41.917 76.0181L43.1221 71.371C43.9249 67.976 44.236 64.4833 44.0459 60.9998 42.2811 63.9266 40.9671 67.1024 40.1481 70.4206L38.9903 75.3609C38.7355 76.4953 38.5149 77.5962 38.309 78.68 37.9228 77.0468 37.3668 75.4586 36.65 73.9412 35.565 71.7541 34.0945 69.7806 32.3089 68.1155 33.3564 66.5694 34.4893 65.083 35.7025 63.6633L34.5238 60.4427 38.2941 60.8729C40.3105 58.8064 42.5502 56.9702 44.972 55.3982 33.5947 51.7461 17.8728 61.1865 11.9654 76.4848 11.1539 78.5918 10.5542 80.7742 10.175 83L7.13885 83C7.54134 80.4028 8.22123 77.8563 9.16685 75.4042 9.96319 73.3687 10.9287 71.4035 12.0531 69.5292 12.0478 59.1064 8.59729 48.2837 2.00592 40.291ZM75.2582 79.598C74.5547 79.858 73.8889 80.2103 73.2781 80.6457 71.5293 80.6104 69.7806 80.7187 68.0495 80.9695 69.2454 78.9902 70.1664 76.8574 70.7873 74.6299 72.1404 76.4044 73.6357 78.0659 75.2582 79.598ZM65.7125 73.4001C66.3734 72.1059 66.9117 70.7527 67.3203 69.3581 68.252 71.0263 69.2923 72.6316 70.4342 74.1635 68.3372 75.7271 66.512 77.6253 65.032 79.7821 64.7037 80.2694 64.4 80.7698 64.1163 81.2713 63.1096 81.06 62.0919 80.905 61.0679 80.8074 61.016 80.5186 60.9641 80.2223 60.9122 79.9184 62.8074 77.9793 64.423 75.7854 65.7125 73.4001ZM46.0367 77.1553C47.5049 75.4252 48.6928 73.4756 49.557 71.3775 50.1989 72.5031 50.9349 73.5723 51.7571 74.5737 53.5315 76.6377 55.5857 78.4435 57.8601 79.9387 57.9002 80.1814 57.9406 80.4153 57.981 80.649 57.9077 80.6487 57.8366 80.6453 57.7631 80.6453 57.67 80.6453 57.5822 80.6494 57.4899 80.6501 55.5498 79.1825 51.3113 78.1619 46.381 78.1619 45.9293 78.1619 45.4909 78.1794 45.0521 78.196 45.3874 77.864 45.7193 77.5207 46.0367 77.1553ZM25.9477 69.7187 30.0825 71.6774C30.785 70.4285 31.5214 69.2762 32.2679 68.1767 32.5141 70.6408 33.1817 73.0442 34.2418 75.2822 35.0258 76.8435 35.9813 78.3127 37.0906 79.6625 36.4474 79.9125 35.8384 80.2428 35.2782 80.6457 34.8642 80.6384 34.4552 80.6384 34.0513 80.6457 32.9436 78.8088 31.5817 77.1377 30.006 75.6822 30.1666 77.4346 30.5198 79.1639 31.0591 80.8388 29.2475 81.0089 27.4672 81.4231 25.7666 82.0703 25.9656 81.352 26.1627 80.6321 26.3968 79.9394 26.6768 79.1116 26.9788 77.3165 27.291 76.5327Z"/><path d="M91.8774 54.1858C92.6102 54.7163 93.3173 55.2805 94.0059 55.8664L94.0059 45.9087C93.2213 44.8628 92.408 43.8382 91.5303 42.8653 84.2511 35.2307 76.3823 36.0356 76.3823 36.0356 77.8884 40.7329 79.8711 45.2638 82.2996 49.5575 85.7196 50.5768 88.9535 52.1395 91.8774 54.1858Z"/><path d="M93.9241 41.6572 94.0059 41.459 94.0059 27.6216C93.2002 26.3963 92.3273 25.2166 91.3914 24.0876 89.6452 28.1275 88.5764 32.4275 88.228 36.8148 90.1475 38.02 91.9049 39.4661 93.4571 41.1177 93.6198 41.2876 93.7591 41.4747 93.9241 41.6572Z"/><path d="M14.8832 65.3711C16.7823 62.9208 18.9633 60.7028 21.3812 58.7627 21.6309 58.1504 21.8829 57.5426 22.1438 56.9648L23.9967 53.2473C25.5234 50.3868 27.3398 47.6907 29.4174 45.2014 23.2608 46.1207 17.4972 49.6533 12.8818 54.7081 13.8422 57.921 14.4907 61.219 14.8184 64.5564 14.845 64.8288 14.8608 65.0993 14.8832 65.3711Z"/><path d="M92.9406 68.7839C93.3015 68.9758 93.6529 69.1838 94.0059 69.389L94.0059 59.4672C92.8467 58.3687 91.6253 57.3378 90.3478 56.3795 83.9077 52.0611 76.1921 50.0572 68.4645 50.696 70.3727 55.523 72.9846 60.041 76.2154 64.1034 82.0452 64.5422 87.7299 66.1331 92.9406 68.7839Z"/></g></svg>