<svg width="96" height="96" xmlns="http://www.w3.org/2000/svg" xmlns:xlink="http://www.w3.org/1999/xlink" overflow="hidden"><defs><clipPath id="clip0"><rect x="0" y="0" width="96" height="96"/></clipPath></defs><g clip-path="url(#clip0)"><path d="M38 44.7C38 48.0137 35.3137 50.7 32 50.7 28.6863 50.7 26 48.0137 26 44.7 26 41.3863 28.6863 38.7 32 38.7 35.3137 38.7 38 41.3863 38 44.7Z"/><path d="M30.3 35.1C33.4 35.1 37.9 34.2 41.5 30 42.2 29.2 42.1 27.9 41.3 27.2 40.5 26.5 39.2 26.6 38.5 27.4 34 32.5 27.9 30.9 27.6 30.8 26.5 30.5 25.4 31.1 25.1 32.2 24.8 33.3 25.4 34.4 26.4 34.7 26.6 34.6 28.1 35.1 30.3 35.1Z"/><path d="M48 61.3C41 61.3 35 65.3 32 71 36.8 68.6 42.2 67.3 48 67.3 53.8 67.3 59.2 68.7 64 71 61 65.2 55 61.3 48 61.3Z"/><path d="M70.9 32.1C70.6 31 69.5 30.4 68.4 30.7 68.1 30.8 61.9 32.5 57.5 27.3 56.8 26.5 55.5 26.4 54.7 27.1 53.9 27.8 53.8 29.1 54.5 29.9 58.1 34.1 62.6 35 65.7 35 67.9 35 69.4 34.6 69.6 34.5 70.6 34.3 71.2 33.2 70.9 32.1Z"/><path d="M70 44.7C70 48.0137 67.3137 50.7 64 50.7 60.6863 50.7 58 48.0137 58 44.7 58 41.3863 60.6863 38.7 64 38.7 67.3137 38.7 70 41.3863 70 44.7Z"/><path d="M48 15C66.7 15 82 30.3 82 49 82 67.7 66.7 83 48 83 29.3 83 14 67.7 14 49 14 30.3 29.3 15 48 15M48 11C27 11 10 28 10 49 10 70 27 87 48 87 69 87 86 70 86 49 86 28 69 11 48 11L48 11Z"/></g></svg>