<svg width="96" height="96" xmlns="http://www.w3.org/2000/svg" xmlns:xlink="http://www.w3.org/1999/xlink" overflow="hidden"><defs><clipPath id="clip0"><rect x="0" y="0" width="96" height="96"/></clipPath></defs><g clip-path="url(#clip0)"><path d="M78.6 17.005 17.4 17.005C15.5304 17.0245 14.0195 18.5354 14 20.405L14 61.717C13.9845 63.5792 15.4815 65.1015 17.3438 65.117 17.3625 65.1171 17.3813 65.1171 17.4 65.117L54.8 65.117 68.4 79.017 68.4 65.217 78.6 65.217C80.4696 65.1975 81.9805 63.6866 82 61.817L82 20.506C82.0239 18.6019 80.504 17.0368 78.6 17.005ZM58.032 49.228C56.3709 53.3164 52.4009 55.993 47.988 56 47.988 56 48.025 53.507 45.272 50.158 42.519 46.809 43.784 41.972 43.784 41.972 40.56 45.0498 39.6616 49.8425 41.552 53.879 39.097 52.54 35.488 46.921 37.906 41.042 39.0091 39.0097 40.5306 37.2343 42.37 35.833 44.751 33.86 48.918 29.135 46.2 24 52.189 26.605 54.831 34.158 51.222 38.958 49.931 40.542 50.1686 42.8726 51.7526 44.1636 53.3366 45.4546 55.6672 45.2171 56.9582 43.6331 57.6756 42.7528 57.9491 41.5919 57.7 40.484 59.446 42.791 59.334 46.735 58.032 49.228Z"/></g></svg>