<?xml version="1.0" encoding="utf-8"?>
<!-- Generator: Adobe Illustrator 25.2.0, SVG Export Plug-In . SVG Version: 6.00 Build 0)  -->
<svg version="1.1" id="Calque_1" xmlns="http://www.w3.org/2000/svg" xmlns:xlink="http://www.w3.org/1999/xlink" x="0px" y="0px"
	 viewBox="0 0 108.7 159.2" style="enable-background:new 0 0 108.7 159.2;" xml:space="preserve">
<style type="text/css">
	.st0{fill:#A1A1A1;}
	.st1{fill:#F7931E;}
</style>
<g>
	<g>
		<g>
			<path class="st0" d="M33.2,116.9l7.9-7.9c1.1-1.1,1.5-2.5,1.2-3.9l2.8-2.8c3.2,2.5,7.2,3.9,11.5,3.9c10.4,0,19-8.5,19-19
				c0-10.4-8.5-19-19-19c-10.4,0-19,8.5-19,19c0,4.3,1.5,8.3,3.9,11.5l-2.8,2.8c-1.4-0.3-2.8,0.1-3.9,1.2l-7.9,7.9
				c-0.9,0.9-1.3,2-1.3,3.2c0,1.1,0.4,2.3,1.3,3.2C28.7,118.6,31.5,118.6,33.2,116.9z M41.5,87.1c0-8.4,6.8-15.2,15.2-15.2
				s15.2,6.8,15.2,15.2s-6.8,15.2-15.2,15.2S41.5,95.5,41.5,87.1z"/>
		</g>
	</g>
</g>
<g>
	<g>
		<path class="st1" d="M55.3,44.3c1.8,7.3-5.7,14.5-13.1,11.5c-6.2-2.2-8.6-9.4-4.3-15.6C47.6,27.3,40.5,7,24.4,0
			c7.3,13.8-3.9,26.5-10.3,31.8s-10.7,10.8-12,14c-6.5,15.8,3.2,30.9,9.8,34.5c-3-6.8-5.8-19.8,6-32c0,0-3.4,13,4,22
			S29.2,86,29.2,86c11.5,0,22.4-6.9,27-18.2C59.7,61.1,60,50.5,55.3,44.3"/>
	</g>
</g>
</svg>
