<svg xmlns="http://www.w3.org/2000/svg" viewBox="0 0 76 76"><g id="Calque_2" data-name="Calque 2"><g id="Calque_1-2" data-name="Calque 1"><path d="M72.09,76C74.24,76,76,73.59,76,70.64V5.52c0-3-1.72-5.47-3.91-5.52H3.77C1.7,0,0,2.42,0,5.37V70.63C0,73.57,1.64,76,3.71,76H72.09ZM54.66,51a17.19,17.19,0,0,1-15.9,10.72s.06-4-4.3-9.25-2.36-13-2.36-13a16.44,16.44,0,0,0-3.53,18.85c-3.89-2.12-9.6-11-5.77-20.32a25.73,25.73,0,0,1,7.07-8.25c3.77-3.13,10.36-10.61,6.06-18.74,9.48,4.13,13.67,16.09,8,23.69a5.86,5.86,0,1,0,10.26,2.41C56.9,40.84,56.73,47.08,54.66,51Z" style="fill:#c85f38"/></g></g></svg>