<svg xmlns="http://www.w3.org/2000/svg" viewBox="0 0 90.25 80.02"><g id="Calque_2" data-name="Calque 2"><g id="Calque_1-2" data-name="Calque 1"><path d="M87.72,72,48.62,4a4,4,0,0,0-6.9,0L2.52,72A4,4,0,0,0,6,78h78.2A4,4,0,0,0,87.72,72Z" style="fill:none;stroke:#c85f38;stroke-miterlimit:10;stroke-width:4px"/><path d="M59.3,46.66c1,4.07-3.19,8.09-7.32,6.42-3.46-1.23-4.8-5.25-2.4-8.71C55,37.17,51,25.84,42.05,21.93c4.07,7.71-2.18,14.79-5.75,17.75s-6,6-6.7,7.82C26,56.32,31.39,64.74,35.07,66.75c-1.67-3.79-3.23-11,3.35-17.86,0,0-1.9,7.26,2.23,12.28s4.08,8.76,4.08,8.76A16.3,16.3,0,0,0,59.8,59.78c2-3.74,2.12-9.66-.5-13.12" style="fill:#c85f38"/></g></g></svg>