<svg id="Calque_1" data-name="Calque 1" xmlns="http://www.w3.org/2000/svg" viewBox="0 0 74.71 99.06"><path d="M39.91,101.7a5.26,5.26,0,0,0-2.29-1,16,16,0,0,0-5.29,0,5.27,5.27,0,0,0-2.28,1,5,5,0,0,0-1.61,2.17,10,10,0,0,0-.6,3.83v3.7a11.59,11.59,0,0,0,.55,4,5.22,5.22,0,0,0,1.51,2.25,5,5,0,0,0,2.26,1,15.92,15.92,0,0,0,5.62,0,5,5,0,0,0,2.27-1,5.22,5.22,0,0,0,1.51-2.25,11.59,11.59,0,0,0,.55-4v-3.7a10,10,0,0,0-.6-3.83A5.08,5.08,0,0,0,39.91,101.7Zm-2.34,9.7a16.06,16.06,0,0,1-.16,2.57,4.12,4.12,0,0,1-.49,1.48,1.44,1.44,0,0,1-.81.68,3.5,3.5,0,0,1-1.13.16,3.57,3.57,0,0,1-1.14-.16,1.5,1.5,0,0,1-.81-.68,4.12,4.12,0,0,1-.49-1.48,16.06,16.06,0,0,1-.16-2.57v-3.7a13.29,13.29,0,0,1,.16-2.31A3.92,3.92,0,0,1,33,104a1.61,1.61,0,0,1,.81-.69A3.06,3.06,0,0,1,35,103.1a3,3,0,0,1,1.13.19,1.54,1.54,0,0,1,.81.69,3.92,3.92,0,0,1,.49,1.41,13.29,13.29,0,0,1,.16,2.31ZM81.63,116a2.83,2.83,0,0,0-1.75-.41H73.36V102.3a1.43,1.43,0,0,0-.65-1.23,2.81,2.81,0,0,0-3,0A1.43,1.43,0,0,0,69,102.3v14.4a1.55,1.55,0,0,0,.57,1.34,3,3,0,0,0,1.77.41h8.53a2.83,2.83,0,0,0,1.75-.41,1.31,1.31,0,0,0,0-2.09ZM65.34,101.07a2.79,2.79,0,0,0-3,0,1.41,1.41,0,0,0-.66,1.23v14.79a1.41,1.41,0,0,0,.66,1.23,2.79,2.79,0,0,0,3,0,1.4,1.4,0,0,0,.65-1.23V102.3A1.4,1.4,0,0,0,65.34,101.07ZM58,116a2.81,2.81,0,0,0-1.75-.41H49.58v-4.73h6a2.81,2.81,0,0,0,1.75-.41,1.31,1.31,0,0,0,0-2.09,2.81,2.81,0,0,0-1.75-.42h-6v-4H56a2.79,2.79,0,0,0,1.75-.42,1.26,1.26,0,0,0,.52-1,1.29,1.29,0,0,0-.52-1.05,2.79,2.79,0,0,0-1.75-.41H47.57a3,3,0,0,0-1.77.41,1.54,1.54,0,0,0-.57,1.33v14A1.55,1.55,0,0,0,45.8,118a3,3,0,0,0,1.77.41h8.69A2.81,2.81,0,0,0,58,118,1.31,1.31,0,0,0,58,116Z" transform="translate(-16.56 -19.8)" style="fill:#fff"/><path d="M53.92,19.8A37.36,37.36,0,1,0,91.27,57.16,37.37,37.37,0,0,0,53.92,19.8ZM79.83,83.07A36.65,36.65,0,1,1,90.56,57.16,36.48,36.48,0,0,1,79.83,83.07ZM70.92,30.71a31.45,31.45,0,0,0-47.76,33C25,55.25,33.9,26.21,70.92,30.71ZM78,36.92c-2.76-.71-20.4-4.66-36.5,5.86C48.53,42,72.64,41,85.05,61.58a32.27,32.27,0,0,0,.31-4.42A31.29,31.29,0,0,0,78,36.92ZM41,43.06c-6.54,4.39-12.79,11.19-17.66,21.6.19.76.4,1.51.64,2.24,5.25,3.52,26.52,15.74,52.31,3.17,0,0-19.73,15.08-48.13,5.17a31.44,31.44,0,0,0,55.32-7.45C80.75,62.23,69.26,43.32,41,43.06Zm5.11,13.27a3.86,3.86,0,1,1-3.86,3.86A3.87,3.87,0,0,1,46.15,56.33Zm.15,15.34A11.72,11.72,0,0,1,34.57,59.94a.53.53,0,0,1,.53-.53.54.54,0,0,1,.54.53A10.66,10.66,0,1,0,46.3,49.28a.54.54,0,1,1,0-1.07,11.73,11.73,0,0,1,0,23.46Z" transform="translate(-16.56 -19.8)" style="fill:#fff"/></svg>