<svg id="Calque_1" data-name="Calque 1" xmlns="http://www.w3.org/2000/svg" viewBox="0 0 76.22 119.65"><path d="M54.41,94.1a15.67,15.67,0,0,1,6.81-1.45h.14a11,11,0,0,0-10.7-1.2A11.44,11.44,0,0,1,54.41,94.1Z" style="fill:#b4aa7a"/><path d="M44.58,97.37c5.25-.38,8-2.15,8.17-2.27s.52-.37.8-.54c-4.07-4.23-11.45-3.72-11.45-3.72v6.62Z" style="fill:#b4aa7a"/><path d="M69.28,96a7,7,0,0,0-.81-.59V91.94a2.45,2.45,0,0,0,1.81-2.38c0-1.48-1.93-4.8-2.47-4.8s-2.47,3.33-2.47,4.8a2.46,2.46,0,0,0,1.81,2.38v2.78a14.06,14.06,0,0,0-4-1V87.8a3.48,3.48,0,0,0,2.68-3.63c0-2.22-2.54-7-3.34-7s-3.34,4.76-3.34,7a3.49,3.49,0,0,0,2.68,3.63v5.76l-.66,0a13.14,13.14,0,0,0-7.83,2.27s-2.93,2-8.74,2.45H42.1v3.26H70.45V96.83Z" style="fill:#b4aa7a"/><path d="M45.73,80.75h1.65v.6H45.73Z" style="fill:#b4aa7a"/><path d="M48,79.67l-1.15-1.06.47-.43,1.15,1.06Z" style="fill:#b4aa7a"/><path d="M52,81.09a2,2,0,1,1-2-1.78A1.88,1.88,0,0,1,52,81.09Z" style="fill:#b4aa7a"/><path d="M49.68,77.19h.66v1.49h-.66Z" style="fill:#b4aa7a"/><path d="M52.65,80.75H54.3v.6H52.65Z" style="fill:#b4aa7a"/><path d="M52,79.67l1.15-1.06-.47-.43-1.14,1.06Z" style="fill:#b4aa7a"/><path d="M48,82.46l-1.15,1.06.47.43,1.15-1.06Z" style="fill:#b4aa7a"/><path d="M49.68,83.46h.66v1.48h-.66Z" style="fill:#b4aa7a"/><path d="M52,82.46l1.15,1.06-.47.43-1.14-1.06Z" style="fill:#b4aa7a"/><path d="M72.44,100a19,19,0,1,0-30.28.19L39.38,103a4.39,4.39,0,0,0-3.92,1.2l-7.92,7.92a4.44,4.44,0,0,0,0,6.32,4.53,4.53,0,0,0,6.27-.06l7.91-7.91a4.34,4.34,0,0,0,1.2-3.92l2.79-2.79a18.72,18.72,0,0,0,11.52,3.92,18.93,18.93,0,0,0,13.71-5.88m0,0a18,18,0,0,0,1.5-1.77M42.1,88.61A15.19,15.19,0,1,1,57.29,103.8,15.24,15.24,0,0,1,42.1,88.61Z" style="fill:#bdbdbd"/><path d="M55.35,42.86c1.8,7.07-5.7,14-13.1,11.13-6.2-2.13-8.6-9.09-4.3-15.09,9.7-12.49,2.6-32.13-13.5-38.9,7.3,13.35-3.9,25.64-10.3,30.77s-10.7,10.45-12,13.55C-4.35,59.6,5.35,74.21,12,77.7c-3-6.58-5.8-19.16,6-31,0,0-3.4,12.58,4,21.29s7.3,15.19,7.3,15.19a29.21,29.21,0,0,0,27-17.61c3.5-6.48,3.8-16.74-.9-22.74" style="fill:#c85f38"/></svg>