<svg id="Calque_1" data-name="Calque 1" xmlns="http://www.w3.org/2000/svg" viewBox="0 0 77.37 120.8"><path d="M35,119.51l7.91-7.91a4.38,4.38,0,0,0,1.21-3.93l2.78-2.78a18.77,18.77,0,0,0,11.52,3.92,19.06,19.06,0,1,0-15.06-7.47l-2.79,2.79a4.39,4.39,0,0,0-3.92,1.2l-7.91,7.91a4.43,4.43,0,0,0,0,6.33A4.52,4.52,0,0,0,35,119.51Zm8.29-29.75A15.19,15.19,0,1,1,58.44,105,15.24,15.24,0,0,1,43.25,89.76Z" transform="translate(0)" style="fill:#bdbcbc"/><path d="M55.35,44.3c1.8,7.3-5.7,14.5-13.1,11.5-6.2-2.2-8.6-9.4-4.3-15.6C47.65,27.3,40.55,7,24.45,0c7.3,13.8-3.9,26.5-10.3,31.8s-10.7,10.8-12,14c-6.5,15.8,3.2,30.9,9.8,34.5-3-6.8-5.8-19.8,6-32,0,0-3.4,13,4,22S29.25,86,29.25,86a29.2,29.2,0,0,0,27-18.2c3.5-6.7,3.8-17.3-.9-23.5" transform="translate(0)" style="fill:#c85f37"/><path d="M59.52,85H58l-.68-.82V81.71h3.1V79.92H58l-1-1.2H54.56l-1,1.2H51.15v1.79h3.1v2.46l-.69.82H47.42v4.77h12.1a2.76,2.76,0,0,1,2.79,2.69v.6h5v-.6A7.62,7.62,0,0,0,59.52,85Z" transform="translate(0)" style="fill:#438dcc"/><path d="M62.72,99.34a2.12,2.12,0,0,0,4.23,0,0,0,0,0,0,0,0c0-1.31-2.11-4.2-2.11-4.2S62.72,98,62.72,99.34Z" transform="translate(0)" style="fill:#438dcc"/></svg>