<svg id="Calque_1" data-name="Calque 1" xmlns="http://www.w3.org/2000/svg" viewBox="0 0 77.73 120.77"><path d="M35.32,119.48l7.92-7.91a4.39,4.39,0,0,0,1.2-3.92l2.78-2.79a18.77,18.77,0,0,0,11.52,3.92,19,19,0,1,0-15.06-7.46l-2.79,2.78A4.39,4.39,0,0,0,37,105.3l-7.91,7.92a4.42,4.42,0,0,0,0,6.32A4.52,4.52,0,0,0,35.32,119.48Zm8.3-29.75A15.19,15.19,0,1,1,58.8,104.92,15.23,15.23,0,0,1,43.62,89.73Z" transform="translate(0)" style="fill:#bdbdbd"/><path d="M55.35,44.3c1.8,7.3-5.7,14.5-13.1,11.5-6.2-2.2-8.6-9.4-4.3-15.6C47.65,27.3,40.55,7,24.45,0c7.3,13.8-3.9,26.5-10.3,31.8s-10.7,10.8-12,14c-6.5,15.8,3.2,30.9,9.8,34.5-3-6.8-5.8-19.8,6-32,0,0-3.4,13,4,22S29.25,86,29.25,86a29.2,29.2,0,0,0,27-18.2c3.5-6.7,3.8-17.3-.9-23.5" transform="translate(0)" style="fill:#c85f38"/><path d="M71.63,89.73a1.18,1.18,0,0,0-1.16-1.2,1,1,0,0,0-.6.18l-5,2.94a2.91,2.91,0,0,1,0,1,2.39,2.39,0,0,1-2.35,1.86H57.43v-1.2h5.22a1.2,1.2,0,0,0,0-2.4h-7a2.66,2.66,0,0,0-1.36.39l-8.21,4.11,4.06,4.2a9.28,9.28,0,0,1,7-2.7h5.42a1.18,1.18,0,0,0,.7-.24l8-6A1.37,1.37,0,0,0,71.63,89.73Z" transform="translate(0)" style="fill:#579b35"/><path d="M67.6,79.89s-3.59-.48-5.5,1.5c-1.4,1.44-1.54,3.75-1.51,5a4.78,4.78,0,0,0-1.48,1.89c-.09-.12-.14-.24-.23-.36a5.83,5.83,0,0,0-1.25-4.05c-1.59-1.65-4.55-1.23-4.55-1.23s-.38,3.06,1.19,4.71a5.33,5.33,0,0,0,3.62,1.29,3.7,3.7,0,0,1,.64,1.23,2.14,2.14,0,0,1,.06.57h1.19a3.6,3.6,0,0,1,.34-1.5,3.54,3.54,0,0,1,1.37-1.68,6.42,6.42,0,0,0,4.66-1.56C68.07,83.61,67.6,79.89,67.6,79.89Z" transform="translate(0)" style="fill:#579b35"/></svg>