<svg id="Calque_1" data-name="Calque 1" xmlns="http://www.w3.org/2000/svg" viewBox="0 0 71.22 89.36"><path d="M11.12,87.53,22.34,76.31A6.22,6.22,0,0,0,24,70.74L28,66.79a26.49,26.49,0,0,0,16.32,5.57A27,27,0,1,0,23,61.77L19,65.72a6.19,6.19,0,0,0-5.56,1.7L2.24,78.64a6.3,6.3,0,0,0,0,9A6.4,6.4,0,0,0,11.12,87.53ZM22.87,45.34A21.53,21.53,0,1,1,44.4,66.88,21.61,21.61,0,0,1,22.87,45.34Z" style="fill:#a2a1a1"/><path d="M47.93,38.14H45.52L44.42,37V33.49h5V31H45.52l-1.61-1.7h-4L38.29,31H34.37v2.54h5V37l-1.1,1.16H28.35v6.78H47.93c2.5,0,4.52,1.7,4.52,3.81v.84h8v-.84C60.48,42.88,54.86,38.15,47.93,38.14Z" style="fill:#438dcc"/><path d="M53.13,58.5a3.48,3.48,0,0,0,6.85.07V58.5c0-1.86-3.42-6-3.42-6S53.13,56.65,53.13,58.5Z" style="fill:#438dcc"/><path d="M26.65,21.33a4.78,4.78,0,0,1-6.31,5.53c-3-1.05-4.14-4.52-2.07-7.51,4.67-6.21,1.25-16-6.5-19.35,3.52,6.64-1.88,12.76-5,15.31S1.66,20.51,1,22.05c-3.12,7.61,1.55,14.88,4.72,16.61A13.44,13.44,0,0,1,8.64,23.25S7,29.51,10.57,33.85s3.51,7.55,3.51,7.55a14,14,0,0,0,13-8.76c1.69-3.22,1.83-8.33-.43-11.31" style="fill:#c85f37"/></svg>