<svg id="Calque_1" data-name="Calque 1" xmlns="http://www.w3.org/2000/svg" viewBox="0 0 202.9 80.02"><path d="M636.33,673l-39.1-68a4,4,0,0,0-6.9,0l-39.2,68a4,4,0,0,0,3.5,6h78.2A4,4,0,0,0,636.33,673Z" transform="translate(-548.6 -600.98)" style="fill:none;stroke:#c85f38;stroke-miterlimit:10;stroke-width:4px"/><path d="M747.59,678c2.15,0,3.89-2.41,3.91-5.36V607.52c0-3-1.72-5.47-3.91-5.52H679.27c-2.07,0-3.75,2.42-3.77,5.37v65.26c0,2.94,1.64,5.35,3.71,5.37h68.38Zm-17.43-25a17.19,17.19,0,0,1-15.9,10.72s.06-4-4.3-9.25-2.36-13-2.36-13a16.44,16.44,0,0,0-3.53,18.85c-3.89-2.12-9.6-11-5.77-20.32a25.73,25.73,0,0,1,7.07-8.25c3.77-3.13,10.36-10.61,6.06-18.74,9.48,4.13,13.67,16.09,8,23.69a5.86,5.86,0,1,0,10.26,2.41C732.4,642.84,732.23,649.08,730.16,653Z" transform="translate(-548.6 -600.98)" style="fill:#c85f38"/><path d="M607.9,647.63c1,4.08-3.18,8.1-7.31,6.42-3.46-1.22-4.8-5.24-2.4-8.7,5.41-7.2,1.45-18.53-7.54-22.44,4.08,7.7-2.17,14.79-5.74,17.75s-6,6-6.7,7.81c-3.63,8.82,1.78,17.25,5.47,19.26-1.68-3.8-3.24-11.05,3.35-17.86,0,0-1.9,7.25,2.23,12.28s4.07,8.76,4.07,8.76a16.28,16.28,0,0,0,15.07-10.16c2-3.74,2.12-9.65-.5-13.12" transform="translate(-548.6 -600.98)" style="fill:#c85f38"/></svg>