<svg id="Calque_1" data-name="Calque 1" xmlns="http://www.w3.org/2000/svg" viewBox="0 0 76.22 119.65"><path d="M64.28,81.59a3.69,3.69,0,0,0-2.16-1.33v-.12c0-1-1.61-1.73-3.63-1.73a6.62,6.62,0,0,0-1.66.2,5.52,5.52,0,0,0-3-.76,4.53,4.53,0,0,0-3.48,1.2,7.11,7.11,0,0,0-1.78-.22c-2,0-3.65.78-3.65,1.74a1.23,1.23,0,0,0,.64,1c-1.9.24-3.27,1-3.27,2,0,1.16,2,2.09,4.38,2.09.35,0,.71,0,1.06-.06,1.4.31,4.49,1.2,4.64,2.22l-.07,3a8.77,8.77,0,0,1,2.28-.31H55L55,87.42s0,0,0,0c.24-.5,1.64-.84,3.13-1.18s3.24-.77,3.8-1.49a7.08,7.08,0,0,0,1.13.09c1.93,0,3.51-.75,3.51-1.67C66.53,82.43,65.59,81.82,64.28,81.59ZM49.35,85.2a4,4,0,0,0,1.29-.75,7.21,7.21,0,0,0,.81.14,2.17,2.17,0,0,1,.91,1.71A18.33,18.33,0,0,0,49.35,85.2Zm4.41.63a2.69,2.69,0,0,0-.61-1.17,8.8,8.8,0,0,0,2-.32A7.16,7.16,0,0,0,53.76,85.83Zm3.68-.25a22.16,22.16,0,0,0-2.42.66,6.46,6.46,0,0,1,2.1-2.06,9,9,0,0,0,2.54.34,7.38,7.38,0,0,0,.82,0C60.16,84.91,59,85.2,57.44,85.58Z" style="fill:#b4aa7a"/><path d="M72.48,99.41V96.82c-.24-.15-.49-.28-.74-.41a16.49,16.49,0,0,0-7.85-1.36c0-.28.07-.46.07-.46a6.52,6.52,0,0,0-.55.5l-.12.11a7.29,7.29,0,0,0-1.06,1.42,8.28,8.28,0,0,0-.76,2c-.12-.71-.23-1.53-.31-2.44a8,8,0,0,0,1.37-1.71,6.43,6.43,0,0,0,.73-2.23A6.37,6.37,0,0,0,61.73,94a7,7,0,0,0-.61,1.5c0-.36,0-.73,0-1.11l0-1.49a10.31,10.31,0,0,0-.52-3.2,9.57,9.57,0,0,0-.53,3.13l0,1.58c0,.37,0,.73.05,1.08a7.7,7.7,0,0,0-.94-1.34,6.85,6.85,0,0,0-1.91-1.45,6.75,6.75,0,0,0,1.22,2,8.15,8.15,0,0,0,1.67,1.36c.06.86.16,1.66.27,2.35a8.61,8.61,0,0,0-1.14-1.64,7.31,7.31,0,0,0-2.16-1.64,7,7,0,0,0,.59,1.2A6.6,6.6,0,0,0,56,97.67a7.22,7.22,0,0,0-.77,1l-.11,0c0-.25.11-.51.17-.77l.4-1.41a10.13,10.13,0,0,0,.3-3.15A10,10,0,0,0,54.7,96.2l-.39,1.5c-.08.35-.15.68-.22,1a7,7,0,0,0-.55-1.44,6.37,6.37,0,0,0-1.43-1.77,14.31,14.31,0,0,1,1.12-1.35l-.39-1,1.24.13a13.44,13.44,0,0,1,2.21-1.66c-3.76-1.11-8.95,1.76-10.9,6.41a9.28,9.28,0,0,0-.59,2h-1a9.92,9.92,0,0,1,.67-2.3,11.37,11.37,0,0,1,1-1.79,13.47,13.47,0,0,0-3.32-8.88v14.19H70.94M53.09,99.31h-.41a6.81,6.81,0,0,0-1.33-1.51,6.6,6.6,0,0,0,.35,1.57,7.37,7.37,0,0,0-1.75.37c.06-.22.13-.44.21-.65s.19-.79.29-1L50,96l1.36.6c.23-.38.48-.73.72-1.07a6.37,6.37,0,0,0,.66,2.16A7.13,7.13,0,0,0,53.69,99,2.8,2.8,0,0,0,53.09,99.31Zm7.42,0h-.09a7.2,7.2,0,0,0-3.67-.76l-.43,0c.11-.11.22-.21.32-.32a6.32,6.32,0,0,0,1.16-1.76,7,7,0,0,0,.73,1,9.14,9.14,0,0,0,2,1.63,1.43,1.43,0,0,0,0,.22Zm2.4-.26c-.1.14-.21.3-.3.45a8.46,8.46,0,0,0-1-.14,2.56,2.56,0,0,0-.05-.27,9.1,9.1,0,0,0,1.59-2,7,7,0,0,0,.53-1.23,12.39,12.39,0,0,0,1,1.46A7.66,7.66,0,0,0,62.91,99.05Zm1,.36a7.07,7.07,0,0,0,.9-1.93A12.41,12.41,0,0,0,66.29,99a3,3,0,0,0-.65.32A11.09,11.09,0,0,0,63.91,99.41Z" style="fill:#b4aa7a"/><path d="M71.78,91.27c.24.16.47.34.7.51v-3a12,12,0,0,0-.82-.92,6.86,6.86,0,0,0-5-2.08,20.91,20.91,0,0,0,2,4.11A11.5,11.5,0,0,1,71.78,91.27Z" style="fill:#b4aa7a"/><path d="M72.45,87.47l0-.06v-4.2a11,11,0,0,0-.86-1.08A11.49,11.49,0,0,0,70.57,86a8.25,8.25,0,0,1,1.73,1.3Z" style="fill:#b4aa7a"/><path d="M46.35,94.67a12.84,12.84,0,0,1,2.15-2l.25-.54L49.36,91a15.22,15.22,0,0,1,1.79-2.45,9.75,9.75,0,0,0-5.46,2.89,14.77,14.77,0,0,1,.64,3A2.29,2.29,0,0,1,46.35,94.67Z" style="fill:#b4aa7a"/><path d="M72.13,95.71c.12.05.23.12.35.18v-3a11.17,11.17,0,0,0-1.21-.94,12.08,12.08,0,0,0-7.22-1.73,15.72,15.72,0,0,0,2.56,4.08A15.42,15.42,0,0,1,72.13,95.71Z" style="fill:#b4aa7a"/><path d="M72.44,100a19,19,0,1,0-30.28.19L39.38,103a4.39,4.39,0,0,0-3.92,1.2l-7.92,7.92a4.44,4.44,0,0,0,0,6.32,4.53,4.53,0,0,0,6.27-.06l7.91-7.91a4.34,4.34,0,0,0,1.2-3.92l2.79-2.79a18.72,18.72,0,0,0,11.52,3.92,18.93,18.93,0,0,0,13.71-5.88m0,0a18,18,0,0,0,1.5-1.77M42.1,88.61A15.19,15.19,0,1,1,57.29,103.8,15.24,15.24,0,0,1,42.1,88.61Z" style="fill:#bdbdbd"/><path d="M55.35,42.86c1.8,7.07-5.7,14-13.1,11.13-6.2-2.13-8.6-9.09-4.3-15.09,9.7-12.49,2.6-32.13-13.5-38.9,7.3,13.35-3.9,25.64-10.3,30.77s-10.7,10.45-12,13.55C-4.35,59.6,5.35,74.21,12,77.7c-3-6.58-5.8-19.16,6-31,0,0-3.4,12.58,4,21.29s7.3,15.19,7.3,15.19a29.21,29.21,0,0,0,27-17.61c3.5-6.48,3.8-16.74-.9-22.74" style="fill:#f7931e"/></svg>